<?xml version="1.0" standalone="no"?><!DOCTYPE svg PUBLIC "-//W3C//DTD SVG 1.1//EN" "http://www.w3.org/Graphics/SVG/1.1/DTD/svg11.dtd"><svg class="icon" width="200px" height="200.00px" viewBox="0 0 1024 1024" version="1.1" xmlns="http://www.w3.org/2000/svg"><path d="M512 64.49899 512 64.49899c-247.148913 0-447.50101 200.353121-447.50101 447.50101l0 0.001023c0 247.14789 200.353121 447.50101 447.50101 447.50101l0.001023 0c247.14789 0 447.50101-200.353121 447.50101-447.50101l0-0.001023C959.50101 264.85211 759.14789 64.49899 512 64.49899zM668.789952 627.865891c15.07637 15.07637 18.176988 36.554544 6.904247 47.827285-11.272741 11.272741-32.751938 8.172123-47.827285-6.904247L512 552.923038 396.133086 668.789952c-15.07637 15.07637-36.554544 18.176988-47.827285 6.904247-11.272741-11.272741-8.172123-32.751938 6.904247-47.827285l115.865891-115.865891L355.210048 396.133086c-15.07637-15.07637-18.176988-36.554544-6.904247-47.827285 11.272741-11.272741 32.751938-8.172123 47.827285 6.904247l115.865891 115.865891 115.865891-115.865891c15.07637-15.07637 36.554544-18.176988 47.827285-6.904247 11.272741 11.272741 8.172123 32.751938-6.904247 47.827285L552.923038 512 668.789952 627.865891z" fill="#858585" /></svg>