<?xml version="1.0" standalone="no"?><!DOCTYPE svg PUBLIC "-//W3C//DTD SVG 1.1//EN" "http://www.w3.org/Graphics/SVG/1.1/DTD/svg11.dtd"><svg class="icon" width="200px" height="200.00px" viewBox="0 0 1024 1024" version="1.1" xmlns="http://www.w3.org/2000/svg"><path d="M512 64.49899 512 64.49899c-247.148913 0-447.50101 200.353121-447.50101 447.50101l0 0.001023c0 247.14789 200.353121 447.50101 447.50101 447.50101l0.001023 0c247.14789 0 447.50101-200.353121 447.50101-447.50101l0-0.001023C959.50101 264.85211 759.14789 64.49899 512 64.49899zM710.214411 408.40969 496.774227 621.849874c0 0-0.001023 0.001023-0.001023 0.001023-0.001023 0.001023-0.001023 0.001023-0.002047 0.002047l-1.070378 1.070378c-5.852288 5.852288-13.643742 8.694009-21.530362 8.581446-7.886621 0.112564-15.677051-2.729158-21.530362-8.581446L334.48605 504.767272c-11.861142-11.861142-11.380188-31.680537 1.072425-44.132126s32.270984-12.933567 44.132126-1.072425l94.480838 94.480838L665.010883 363.205139c11.861142-11.861142 31.680537-11.380188 44.132126 1.072425C721.594599 376.729154 722.075553 396.548548 710.214411 408.40969z" fill="#71DF2F" /></svg>